# xmcd CD database file
#
# Track frame offsets:
#	150
#	13240
#	26985
#	41250
#	55050
#	67175
#	81325
#	98920
#	109167
#	120020
#	130160
#	140440
#	158415
#	172800
#	182785
#	194362
#	207885
#
# Disc length: 2982 seconds
#
# Revision: 3
# Processed by: cddbd v1.5.2PL0 Copyright (c) Steve Scherf et al.
# Submitted via: CDex 1.50
#
DISCID=e20ba411
DTITLE=Verschiedene - Country Greats Vol.4
DYEAR=1994
DGENRE=Country
TTITLE0=I Never Got Over You (Randy Vanmwarmer)
TTITLE1=She's The Reason (Randy Vanmwarmer)
TTITLE2=Stories, Trophies And Memories (Randy Vanmwarmer)
TTITLE3=Raindrops Keep Falling On My Head (BJ Thomas)
TTITLE4=Stand By Your Man (Lyn Anderson)
TTITLE5=I'm So Lonesome I Could Cry (BJ Thomas)
TTITLE6=Looking For Love (Johnny Lee)
TTITLE7=Out Of My Head And Back In My Bed (Loretta Lynn)
TTITLE8=Spring Fever (Loretta Lynn)
TTITLE9=You're Looking At Country (Loretta Lynn)
TTITLE10=Somebody Somewhere (Loretta Lynn)
TTITLE11=Garden Party (Rick Nelson)
TTITLE12=Summer In The Country (Roger Whittacker)
TTITLE13=I'm Sorry (Brenda Lee)
TTITLE14=Silver Threads And Golden Needles (Brenda Lee)
TTITLE15=You Don't Have To Say You Love Me (Brenda Lee)
TTITLE16=Johnny One Time (Brenda Lee)
EXTD=YEAR: 1994
EXTT0=
EXTT1=
EXTT2=
EXTT3=
EXTT4=
EXTT5=
EXTT6=
EXTT7=
EXTT8=
EXTT9=
EXTT10=
EXTT11=
EXTT12=
EXTT13=
EXTT14=
EXTT15=
EXTT16=
PLAYORDER=
